<?xml version="1.0" encoding="UTF-8"?>
<svg id="Layer_1" data-name="Layer 1" xmlns="http://www.w3.org/2000/svg" viewBox="0 0 324.47 324.42">
  <defs>
    <style>
      .cls-1 {
        stroke-width: 0px;
      }
    </style>
  </defs>
  <path class="cls-1" d="m162.22,324.42C72.61,324.41-.03,251.74,0,162.12.03,72.53,72.74-.06,162.38,0c89.58.06,162.11,72.64,162.09,162.19-.02,89.68-72.57,162.22-162.25,162.22Zm.04-127.74c.62.6,1.16,1.12,1.69,1.65,14.61,14.61,29.21,29.23,43.83,43.82,6.3,6.28,13.88,8.64,22.61,6.94,12.79-2.49,21.41-15.46,18.9-28.23-1.02-5.19-3.5-9.57-7.25-13.3-14.59-14.54-29.14-29.11-43.7-43.68-.53-.53-1.03-1.07-1.9-1.97.73-.54,1.42-.91,1.96-1.45,14.62-14.6,29.25-29.19,43.83-43.82,6.44-6.47,8.77-14.25,6.78-23.17-2.81-12.57-15.49-20.7-28.15-18.25-5.14.99-9.47,3.43-13.15,7.12-14.6,14.62-29.21,29.22-43.83,43.83-.52.52-1.07,1.02-1.85,1.78-.55-.69-.93-1.29-1.42-1.78-14.65-14.66-29.29-29.33-43.96-43.96-6.31-6.29-13.92-8.57-22.63-6.85-12.5,2.48-21.01,15.04-18.88,27.57.92,5.44,3.4,10,7.29,13.89,14.58,14.55,29.13,29.12,43.71,43.68.54.53,1.19.95,1.89,1.49-.8.82-1.31,1.36-1.84,1.89-14.61,14.61-29.22,29.21-43.82,43.83-6.17,6.18-8.59,13.61-7.07,22.22,2.29,12.96,15.35,21.82,28.28,19.31,5.14-1,9.49-3.38,13.17-7.07,14.64-14.67,29.3-29.31,43.96-43.96.48-.48.98-.95,1.58-1.51Z"/>
</svg>