<?xml version="1.0" encoding="UTF-8"?>
<svg id="Layer_1" data-name="Layer 1" xmlns="http://www.w3.org/2000/svg" viewBox="0 0 321.98 321.98">
  <defs>
    <style>
      .cls-1 {
        fill: #95b9e7;
      }

      .cls-1, .cls-2, .cls-3 {
        stroke-width: 0px;
      }

      .cls-2, .cls-4 {
        fill: none;
      }

      .cls-4 {
        stroke: #fff;
        stroke-linecap: round;
        stroke-miterlimit: 10;
        stroke-width: 7px;
      }

      .cls-3 {
        fill: #fff;
      }
    </style>
  </defs>
  <circle class="cls-1" cx="160.99" cy="160.99" r="160.99"/>
  <path class="cls-2" d="m256.31,101.02c0,12.44-4.73,24.87-14.21,34.34l-12.44,12.44-60.67,60.67c-4.42,4.42-11.58,4.42-16,0l-73.11-73.11c-9.48-9.46-14.21-21.9-14.21-34.34s4.64-24.58,13.93-34.03c18.89-19.2,50.52-18.72,69.56.32l11.83,11.83,11.83-11.83c19.04-19.04,50.67-19.52,69.56-.32,9.29,9.45,13.93,21.74,13.93,34.03Z"/>
  <path class="cls-3" d="m183.27,242.79c-.23.13-.43.24-.63.37-1.63,1-3.4,1.48-5.32,1.48-7.85,0-15.7,0-23.54,0-1.95,0-3.75-.48-5.4-1.51-.15-.09-.31-.18-.5-.29-.28.13-.57.27-.85.42-6.36,3.3-12.72,6.59-19.08,9.89-.55.29-1.24.43-1.64.85-.4.42-.49,1.12-.75,1.67-1.36,2.88-3.6,4.72-6.66,5.56-4.62,1.26-9.25,2.52-13.87,3.78-2.91.79-5.82,1.59-8.74,2.37-2.6.7-5.11.43-7.48-.86-.45-.24-.86-.28-1.35-.23-1.09.12-2.18.21-3.27.25-5.06.21-10.12.4-15.18.61-2.6.11-5.21.22-7.81.33-1.47.06-2.9-.12-4.27-.67-.57-.23-1.15-.49-1.67-.82-2.09-1.32-3.29-3.19-3.39-5.7-.06-1.6-.16-3.19-.19-4.79-.04-2.08.79-3.8,2.32-5.18,1.55-1.39,3.38-2.18,5.45-2.36,1.89-.16,3.78-.22,5.68-.3,5.06-.21,10.12-.4,15.18-.6,1.07-.04,2.13-.11,3.19-.14.38-.01.65-.13.9-.44,1.45-1.83,3.34-2.94,5.59-3.55,7.37-1.98,14.73-4,22.1-6.02,1.47-.4,2.95-.59,4.48-.35.33.05.73.03,1.02-.11,2.58-1.32,5.14-2.69,7.71-4.03,5.07-2.64,10.14-5.26,15.21-7.89,1.49-.77,3.06-1.27,4.76-1.26.4,0,.66-.15.91-.43,2.1-2.35,4.75-3.43,7.88-3.42,7.67.02,15.34.01,23.01,0,3.11,0,5.73,1.08,7.81,3.39.31.34.62.47,1.08.47,1.63-.01,3.16.43,4.6,1.17,7.39,3.82,14.77,7.65,22.15,11.48.03.01.05.03.08.04.79.64,1.67.72,2.66.54,1.15-.2,2.3.03,3.42.33,7.57,2.05,15.13,4.12,22.7,6.18,2.09.57,3.85,1.67,5.2,3.37.31.39.65.52,1.13.54,7.46.29,14.91.6,22.37.9,1.52.06,3.01.26,4.42.87,1.18.51,2.24,1.21,3.11,2.17,1.2,1.33,1.83,2.89,1.75,4.7-.07,1.63-.15,3.25-.2,4.88-.06,2.06-.97,3.7-2.54,4.97-1.72,1.4-3.73,2.06-5.92,2.06-2.22,0-4.44-.13-6.66-.22-3.61-.15-7.22-.31-10.83-.46-2.87-.12-5.75-.15-8.6-.4-1.23-.11-2.27.08-3.37.59-2.03.93-4.19,1.01-6.34.43-7.63-2.06-15.25-4.13-22.86-6.23-3.44-.95-5.75-3.18-6.92-6.56-.16-.46-.4-.71-.84-.93-2.88-1.45-5.75-2.93-8.61-4.41-3.89-2.01-7.78-4.03-11.67-6.05-.29-.15-.58-.29-.88-.44Zm-2.92-17.61c-.16-.12-.29-.23-.44-.32-.87-.5-1.82-.67-2.82-.67-5.03,0-10.07,0-15.1,0-2.69,0-5.39,0-8.08,0-1.12,0-2.17.21-3.09.91.39.58.82,1.12,1.14,1.71.79,1.46,1.57,2.92,2.28,4.42.31.66.55,1.38.65,2.1.29,2.08-.39,3.91-1.62,5.56-.18.24-.36.49-.62.86.51.03.82.07,1.14.07,7.85,0,15.69,0,23.54,0,.37,0,.74-.06,1.08-.09.02-.13.04-.17.03-.18-.24-.34-.49-.67-.71-1.01-1.36-2.06-2.01-4.3-1-6.64,1-2.3,2.12-4.56,3.63-6.72Zm60.55,22.62c-7.82-2.13-15.44-4.22-23.15-6.3.03.29.03.44.06.58.4,1.73.11,3.34-.74,4.88-.69,1.24-1.33,2.51-1.96,3.78-.84,1.68-2.16,2.79-3.92,3.39-.22.07-.43.17-.74.29.33.36.58.69.87.97.71.67,1.58,1.01,2.51,1.26,4.51,1.22,9.02,2.46,13.53,3.69,2.97.81,5.94,1.61,8.91,2.41.47.13.94.24,1.49.08-.11-.22-.17-.35-.25-.47-.73-1.2-1-2.51-.92-3.91.09-1.48.15-2.96.18-4.44.05-2.43,1.21-4.21,3.15-5.56.26-.18.53-.36.98-.65Zm-147.33,15.07c.64.12,1.26-.08,1.87-.25,5.4-1.47,10.79-2.94,16.18-4.41,2.08-.57,4.17-1.14,6.25-1.72,1.2-.34,2.16-1.01,2.9-2.1-.26-.1-.42-.18-.58-.23-1.88-.6-3.24-1.77-4.11-3.54-.65-1.33-1.34-2.64-2.04-3.94-.76-1.42-.92-2.91-.64-4.48.03-.19.05-.39.08-.71-7.72,2.1-15.35,4.18-23.13,6.3.52.35.89.58,1.24.84,1.67,1.25,2.73,2.86,2.87,4.98.09,1.3.08,2.61.18,3.9.14,1.84-.05,3.6-1.08,5.2-.01.02,0,.06.02.15Zm-11.4-11.48c-.21,0-.35,0-.49,0-6.92.28-13.84.56-20.76.84-.47.02-.95.06-1.41.15-1.03.2-1.98.6-2.72,1.39-.47.5-.72,1.07-.68,1.77.07,1.48.14,2.96.18,4.44.02.94.41,1.67,1.2,2.15.5.3,1.05.58,1.61.71.68.16,1.41.22,2.11.2,4.85-.17,9.7-.38,14.55-.58,2.57-.1,5.15-.21,7.72-.32.34-.01.7.08,1.02-.2-.08-.22-.16-.41-.21-.61-.65-2.43-1.34-4.84-1.93-7.29-.2-.82-.12-1.7-.17-2.65Zm164.57,10.64c.28.04.47.08.67.09,1.69.07,3.37.13,5.06.2,3.87.16,7.75.32,11.62.48,2.16.09,4.32.18,6.48.24,1.18.03,2.29-.27,3.26-.96.66-.47,1.07-1.07,1.09-1.93.03-1.42.05-2.85.19-4.26.12-1.26-.42-2.1-1.41-2.75-.97-.63-2.07-.86-3.21-.91-1.69-.08-3.37-.14-5.06-.21-5.27-.21-10.53-.42-15.8-.63-.2,0-.4.02-.64.03,0,.19.01.34,0,.48-.09,1.06-.07,2.14-.3,3.16-.42,1.87-.98,3.72-1.49,5.57-.12.45-.29.88-.47,1.39Zm-37.48-22.92c-.41-.22-.72-.4-1.03-.56-2.26-1.17-4.52-2.34-6.78-3.51-4.23-2.19-8.46-4.39-12.69-6.58-.43-.22-.84-.51-1.36-.49,0,2.22,0,4.38,0,6.53,0,1.44-.27,2.82-.85,4.14-.09.21-.15.43-.24.7,6.25,3.24,12.46,6.46,18.72,9.7.1-.3.16-.46.2-.63.41-1.48.82-2.97,1.22-4.45.44-1.63,1.21-3.08,2.35-4.32.14-.15.27-.31.46-.53Zm-83.07,9.95c6.29-3.27,12.46-6.46,18.64-9.67-.14-.34-.24-.58-.34-.82-.52-1.24-.81-2.53-.8-3.89.01-2.07.02-4.14.02-6.22,0-.14-.03-.27-.05-.41-.75.14-20.84,10.49-21.65,11.16,1.79,1.66,2.62,3.82,3.16,6.13.28,1.21.64,2.39,1.01,3.72Zm115.75,11.65c.23-.49.5-.92.64-1.38.53-1.82,1.03-3.64,1.5-5.47.2-.77.28-1.57-.1-2.45-.41.16-.84.28-1.22.48-.97.52-1.59,1.26-1.59,2.45,0,1.51-.12,3.01-.18,4.52-.03.73.26,1.31.94,1.84Zm-154.69-9.2c-.31.82-.34,1.4-.05,2.5.45,1.72.91,3.43,1.41,5.13.15.52.44,1.01.68,1.56.7-.52.97-1.1.94-1.83-.06-1.48-.12-2.96-.18-4.43-.06-1.65-1.09-2.73-2.81-2.93Zm125.89-9.3c-1.06.76-1.69,1.69-2.01,2.84-.38,1.37-.76,2.74-1.12,4.11-.05.19-.05.39-.09.65.6-.17.94-.52,1.18-.98.74-1.42,1.47-2.83,2.21-4.25.4-.78.33-1.53-.16-2.36Zm-91.93,7.71c.07-.29.11-.35.09-.4-.45-1.65-.87-3.31-1.37-4.94-.3-.97-.93-1.74-1.84-2.37-.44.74-.58,1.46-.24,2.16.77,1.56,1.57,3.11,2.41,4.63.18.33.56.55.94.92Zm27.91-12.98c.35-.47.7-.86.96-1.3.54-.9.62-1.81.05-2.76-.39-.66-.71-1.36-1.07-2.04-.13-.25-.28-.48-.44-.75-.09.13-.14.17-.14.21,0,1.56-.03,3.13,0,4.69.01.64.16,1.28.62,1.95Zm33.51-6.48c-.08-.03-.16-.06-.24-.1-.54,1.1-1.15,2.17-1.61,3.3-.38.93.36,2.44,1.39,3.02.77-2.05.28-4.16.45-6.22Z"/>
  <path class="cls-4" d="m160.99,79.65c-12.61-16.26-29.27-31.04-56.7-25.89-9.83,1.84-24.66,7.42-34.52,26.28-7.73,14.79-5.14,33.86,4.71,48,5.68,8.16,19.26,21.02,33.43,35.36,21.09,21.35,42.48,47.04,52.45,48.28,13.9,1.73,20.57-48.1-2.14-73.14-12.39-13.66-28.97-16.59-35.3-17.36"/>
  <path class="cls-4" d="m163.04,211.39c7.16-1.28,35.04-32.02,44.07-41.05,23.34-23.34,24.18-29.67,22.76-36.6-1.63-7.96-3.9-11.64-10.16-13.28-17.15-4.5-29.3,9.64-43.98,9.07-6.05-.24-22.1-6.72-23.46-19.14s2.52-21.77,9.22-31.17c5.21-7.31,13.66-16.13,28.78-22.83,35.39-15.68,91,24.71,54.21,75.79"/>
</svg>