<?xml version="1.0" encoding="UTF-8"?>
<svg id="Layer_1" data-name="Layer 1" xmlns="http://www.w3.org/2000/svg" viewBox="0 0 514 514.23">
  <defs>
    <style>
      .cls-1 {
        stroke-width: 0px;
      }
    </style>
  </defs>
  <path class="cls-1" d="m0,258.59c.81,142.19,115.88,256.24,257.93,255.64,142.65-.61,256.8-115.88,256.06-258.59C513.26,113.53,398.13-.58,256.06,0,113.43.59-.8,115.95,0,258.59Zm183.64-17.04c29.95-30.38,59.99-60.7,90.74-90.25,4.39-4.22,13.41-6.59,19.5-5.48,17.59,3.2,22.16,23.4,8.83,36.89-24.36,24.66-49.04,49-74.55,74.44,25.96,25.88,50.92,50.5,75.56,75.44,9.2,9.31,9.22,21.35.99,30.1-8.58,9.12-21.23,9.7-30.85.22-30.39-29.94-60.57-60.11-90.48-90.53-9.55-9.71-9.4-21.03.25-30.83Z"/>
</svg>