<?xml version="1.0" encoding="UTF-8"?>
<svg id="Layer_1" data-name="Layer 1" xmlns="http://www.w3.org/2000/svg" viewBox="0 0 314.86 200.31">
  <defs>
    <style>
      .cls-1 {
        stroke-width: 0px;
      }
    </style>
  </defs>
  <path class="cls-1" d="m157.71.05c43.56,0,87.11.08,130.67-.05,10.92-.03,19.55,3.39,24.71,13.59,1.89,3.73,1.38,6.06-2.45,8.54-49.77,32.22-99.4,64.66-149.23,96.8-1.97,1.27-6.28,1.06-8.34-.27C103.48,86.65,54.07,54.33,4.48,22.28.23,19.54,0,17.09,2.06,13.16,7.23,3.32,15.69-.02,26.29.01c41.05.1,82.11.04,123.16.04,2.75,0,5.51,0,8.26,0Z"/>
  <path class="cls-1" d="m157.46,200.27c-43.8,0-87.6-.05-131.4.04-10.31.02-18.58-3.26-23.75-12.68-2.22-4.04-2.26-6.74,2.37-9.71,33.89-21.75,67.6-43.78,101.26-65.9,3.26-2.14,5.47-2.03,8.6.07,11.83,7.96,23.96,15.46,35.75,23.49,5.07,3.46,9.31,3.45,14.37,0,11.58-7.88,23.52-15.22,35.11-23.09,3.6-2.45,6.16-2.53,9.88-.08,33.43,22.01,66.93,43.9,100.61,65.52,4.66,2.99,4.55,5.69,2.35,9.72-4.99,9.13-12.94,12.69-23,12.65-18.52-.06-37.04-.01-55.56-.01-25.53,0-51.06,0-76.59,0Z"/>
  <path class="cls-1" d="m0,162.73V37.65c32.12,20.89,63.53,41.33,96.07,62.5C63.82,121.15,32.54,141.53,0,162.73Z"/>
  <path class="cls-1" d="m218.84,100.17c32.55-21.18,63.84-41.54,96.01-62.48v124.95c-32.04-20.85-63.42-41.26-96.01-62.47Z"/>
</svg>