<?xml version="1.0" encoding="UTF-8"?>
<svg id="Layer_1" data-name="Layer 1" xmlns="http://www.w3.org/2000/svg" viewBox="0 0 307.62 308.07">
  <defs>
    <style>
      .cls-1 {
        stroke-width: 0px;
      }
    </style>
  </defs>
  <path class="cls-1" d="m233.42,307.64c-9.41.19-18.52-1.59-27.37-4.55-18.32-6.14-36.65-12.3-54.02-20.91-13-6.45-25.01-14.5-36.38-23.47-27.42-21.64-51.77-46.29-72.51-74.45-12.7-17.25-22.31-36.09-29.23-56.34-3.58-10.48-7.6-20.82-10.7-31.44C-2.86,75.6-.12,55.49,9.72,36.25c3.6-7.03,7.76-13.71,12.77-19.84,4.56-5.58,10.1-9.64,17.09-11.66C47.16,2.55,54.77.58,62.68.04c1.08-.07,2.17-.02,3.26-.04,3.03-.05,5.39,1.26,7,3.75,2.16,3.32,4.3,6.66,6.24,10.11,7.29,12.98,14.43,26.04,21.78,38.98,2.19,3.86,4.96,7.4,7.33,11.17,1.15,1.83,2.12,3.8,2.92,5.81,1.3,3.29.91,6.48-1.02,9.49-3.27,5.11-7.71,9.13-12.27,13.01-4.88,4.16-10.04,7.99-14.87,12.21-2.97,2.6-5.66,5.55-8.28,8.52-2.52,2.85-2.94,6.21-1.5,9.76.75,1.86,1.34,3.83,2.33,5.55,8.48,14.68,16.97,29.35,27.58,42.68,13.35,16.78,28.85,31.23,46.68,43.09,9.13,6.08,18.62,11.61,28.07,17.19,2.68,1.58,5.73,2.56,8.68,3.63,2.27.82,4.59.49,6.53-.95,2.26-1.68,4.61-3.34,6.47-5.42,4.39-4.89,8.56-9.98,12.73-15.07,4.32-5.26,8.79-10.36,14.13-14.64,4.47-3.59,9.16-3.96,14.1-1.23,2.42,1.34,4.83,2.75,7.07,4.35,9.36,6.68,19.61,11.85,29.61,17.44,7.3,4.08,14.68,8.01,21.95,12.15,2.2,1.25,4.2,2.89,6.21,4.46,1.43,1.12,2.31,2.73,2.21,4.55-.24,4.43-.38,8.91-1.1,13.27-.75,4.54-2.13,8.97-3.26,13.45-1.97,7.83-6.56,13.87-12.86,18.72-12.46,9.6-26.08,16.89-41.61,20.06-5.03,1.03-10.21,1.35-15.32,1.99-.02-.14-.03-.29-.05-.43Z"/>
</svg>