<?xml version="1.0" encoding="UTF-8"?>
<svg id="Layer_1" data-name="Layer 1" xmlns="http://www.w3.org/2000/svg" viewBox="0 0 258.78 325.88">
  <defs>
    <style>
      .cls-1 {
        stroke-width: 0px;
      }
    </style>
  </defs>
  <path class="cls-1" d="m216.77,33.81C192.53,11.3,160.98-.07,129.4,0c-31.59-.07-63.14,11.3-87.38,33.81C-9.21,81.37-14.49,154.98,31.1,212.25l95.33,112.26c1.55,1.83,4.37,1.83,5.92,0l95.32-112.26c45.59-57.27,40.31-130.89-10.91-178.45Zm-86.86,143.47c-.18,0-.34-.01-.51-.01-.18,0-.34.01-.52.01-29.17-.11-52.78-23.84-52.74-52.98.03-29.3,24.02-53.19,53.17-52.94h.18c29.15-.25,53.14,23.63,53.18,52.94.03,29.14-23.58,52.87-52.75,52.98Z"/>
</svg>