<?xml version="1.0" encoding="UTF-8"?>
<svg id="Layer_1" data-name="Layer 1" xmlns="http://www.w3.org/2000/svg" viewBox="0 0 514 514.23">
  <defs>
    <style>
      .cls-1 {
        stroke-width: 0px;
      }
    </style>
  </defs>
  <path class="cls-1" d="m257.94,0C115.87-.58.74,113.53,0,255.64c-.74,142.71,113.41,257.98,256.06,258.59,142.04.61,257.12-113.45,257.93-255.64C514.8,115.95,400.57.59,257.94,0Zm72.67,272.37c-29.91,30.42-60.09,60.59-90.48,90.53-9.63,9.49-22.28,8.91-30.85-.22-8.22-8.75-8.2-20.79.99-30.1,24.64-24.94,49.6-49.56,75.56-75.44-25.52-25.44-50.19-49.79-74.55-74.44-13.33-13.5-8.76-33.69,8.83-36.89,6.09-1.11,15.11,1.27,19.5,5.48,30.76,29.56,60.79,59.87,90.74,90.25,9.66,9.8,9.81,21.11.25,30.83Z"/>
</svg>